PathFileType	4	(X/Y/Z)	C:/Users/beibeiliu/ov580/test_trc/User1\sequence.32_training_dense_left.trc
DataRate	CameraRate	NumFrames	NumMarkers	Units	OrigDataRate	OrigDataStartFrame	OrigNumFrames
120	120	19	19	mm	120	169	224
Frame#	Time	ThumbCMC			ThumbMCP			ThumbIP			ThumbTip			IndexMCP			IndexPIP			IndexTip			MiddleMCP			MiddlePIP			MiddleTip			RingMCP			RingPIP			RingTip			PinkyMCP			PinkyPIP			PinkyTip			BackHand1			BackHand2			BackHand3	
		X0	Y0	Z0	X1	Y1	Z1	X2	Y2	Z2	X3	Y3	Z3	X4	Y4	Z4	X5	Y5	Z5	X6	Y6	Z6	X7	Y7	Z7	X8	Y8	Z8	X9	Y9	Z9	X10	Y10	Z10	X11	Y11	Z11	X12	Y12	Z12	X13	Y13	Z13	X14	Y14	Z14	X15	Y15	Z15	X16	Y16	Z16	X17	Y17	Z17	X18	Y18	Z18	
168	1.4	-179.225	-11.4045	6.64021	-184.7	7.08517	-11.8949	-186.171	16.2039	-39.8591	-198.303	28.9469	-52.1078	-138.47	-30.4648	-68.7406	-123.768	-34.878	-91.6696	-110.186	-39.5965	-112.489	-114.173	-53.8336	-65.1569	-96.0556	-54.2731	-83.8555	-71.3597	-54.3486	-107.982	-88.1682	-50.583	-42.348	-69.2324	-24.6928	-39.1916	-73.2418	-7.07915	-14.9072	-83.905	-57.7525	-14.6191	-71.5368	-29.6184	-11.6945	-84.5191	-7.5782	-0.219347	-139.628	-70.3664	-2.22109	-156.516	-70.2478	26.6554	-171.536	-45.019	-3.5149	
169	1.40833	-183.835	-8.22777	9.94888	-182.787	5.86405	-15.2638	-185.48	15.7521	-40.6524	-194.775	28.6768	-51.4826	-139.375	-29.1883	-68.4867	-127.603	-29.9253	-91.7748	-113.264	-33.8322	-111.742	-116.887	-55.8783	-63.079	-101.189	-51.9484	-88.4555	-81.9947	-54.0288	-108.351	-95.8409	-57.2826	-43.4017	-65.7933	-37.9803	-47.7391	-58.3207	-10.1177	-25.7816	-85.9893	-59.8729	-18.1157	-66.0023	-40.0476	-15.4383	-67.4866	-11.1626	-9.76938	-141.482	-68.4485	-2.00401	-161.693	-68.9853	26.4727	-170.304	-46.1111	-3.02266	
170	1.41667	-182.537	-8.73078	5.78959	-188.362	10.1346	-13.6998	-188.785	18.9633	-36.2882	-195.185	31.6765	-54.5028	-136.962	-28.415	-70.3311	-126.387	-29.2967	-89.9708	-112.246	-33.6	-112.524	-117.689	-55.5143	-65.5863	-105.091	-51.8482	-89.8318	-84.3134	-57.0977	-108.383	-93.2247	-61.0977	-46.1802	-67.5535	-44.617	-57.1442	-51.0553	-24.2846	-48.8852	-85.0477	-65.4504	-13.8244	-67.6032	-48.818	-20.1556	-56.3634	-18.3054	-20.944	-139.371	-70.0131	0.359303	-159.812	-70.1623	27.6037	-170.864	-45.2658	-1.67354	
171	1.425	-183.726	-8.49457	7.64922	-184.596	8.60043	-13.6697	-184.632	17.971	-39.9543	-191.949	29.9479	-51.6228	-136.842	-27.0826	-70.6177	-124.416	-29.6631	-88.8339	-111.764	-33.4205	-112.955	-119.64	-54.3892	-65.2046	-107.589	-52.2364	-85.1074	-89.6882	-56.9925	-112.366	-98.8237	-61.8518	-45.6218	-74.7576	-56.0688	-59.6309	-47.149	-37.6806	-65.509	-86.8374	-67.6533	-11.9863	-64.7373	-55.6453	-20.5258	-49.2523	-36.927	-28.0911	-138.391	-70.3453	-2.928	-162.555	-68.6215	28.8929	-172.179	-40.8948	-2.01531	
172	1.43333	-182.729	-8.32207	7.61682	-188.429	10.9946	-13.4582	-185.949	18.438	-40.1749	-195.323	33.4666	-51.7829	-138.763	-26.8581	-66.6142	-125.3	-29.383	-88.8076	-114.117	-30.09	-110.956	-119.757	-54.5596	-62.7263	-108.162	-51.9163	-87.6511	-90.8935	-58.2964	-115.094	-98.1294	-62.349	-49.0862	-75.5004	-58.7428	-64.689	-51.6145	-51.0259	-73.2361	-85.4632	-70.5761	-10.6686	-63.2718	-62.0474	-21.3949	-40.4674	-50.039	-32.8778	-141.589	-66.9503	-4.63915	-159.793	-69.4192	26.142	-169.827	-45.0539	-0.0679404	
173	1.44167	-179.786	-9.84856	6.86415	-183.127	9.33848	-15.682	-187.799	21.887	-41.5542	-191.98	33.4207	-53.1275	-137.135	-28.055	-66.9284	-124.566	-27.9721	-93.3461	-111.307	-33.7152	-111.044	-120.105	-53.5578	-64.4753	-107.3	-52.8005	-90.6131	-92.9374	-56.6679	-117.069	-101.465	-62.726	-46.7782	-78.6955	-64.4303	-64.1007	-58.6857	-54.9434	-82.323	-86.8147	-72.8606	-15.3528	-65.5997	-68.7619	-24.5946	-42.0419	-65.5416	-36.4723	-144.545	-66.8863	-3.64415	-158.48	-66.707	23.4351	-171.585	-41.4542	-5.35457	
174	1.45	-179.234	-8.90739	6.17869	-182.291	8.52471	-16.0326	-187.586	22.6325	-41.2519	-189.148	32.6939	-54.7376	-140.038	-24.9186	-67.5695	-123.614	-28.7417	-91.3056	-112.695	-32.6213	-114.548	-119.827	-53.2545	-65.89	-104.735	-53.5394	-90.9333	-91.8796	-57.8253	-112.058	-98.4802	-65.5434	-47.9992	-80.6572	-60.3433	-68.9446	-59.0977	-56.9694	-83.1173	-88.2246	-75.385	-15.6411	-70.9396	-75.1149	-27.1658	-48.1266	-77.5705	-40.0336	-141.244	-70.3296	-5.2361	-159.026	-68.9722	24.3259	-171.325	-42.0336	-3.5231	
175	1.45833	-179.774	-8.32863	9.26662	-184.941	11.7556	-15.9582	-183.836	22.3756	-39.5197	-192.862	37.3899	-52.0182	-136.765	-28.6589	-68.2067	-128.591	-26.6281	-89.3298	-117.034	-32.3816	-113.735	-117.848	-54.0281	-66.9232	-104.32	-54.1009	-86.2035	-86.8611	-57.0185	-114.072	-99.6355	-63.283	-49.0981	-80.6298	-58.5322	-69.7345	-61.6667	-55.0818	-82.538	-88.8503	-77.9705	-16.7514	-73.688	-79.5772	-26.9507	-55.5848	-88.4285	-43.1266	-143.442	-66.692	-1.49699	-159.539	-66.1111	23.5628	-171.26	-41.5909	-2.40151	
176	1.46667	-177.406	-6.70104	4.52452	-182.28	13.0451	-16.1131	-183.129	24.1434	-38.8314	-190.516	37.2109	-51.4715	-137.048	-30.0282	-68.3422	-124.597	-33.0601	-92.6043	-117.199	-37.6076	-112.358	-115.778	-53.9125	-66.875	-101.748	-51.4457	-86.3212	-81.6054	-54.5991	-113.434	-98.6685	-63.9574	-48.7668	-78.5382	-62.003	-66.7149	-56.2517	-52.6121	-84.337	-93.1607	-77.5697	-21.3359	-73.6299	-85.382	-28.9665	-60.9861	-96.0886	-44.012	-142.193	-68.6983	-2.736	-158.707	-67.5146	23.9599	-170.51	-41.3218	-6.18825	
177	1.475	-179.486	-4.20953	5.57403	-180.862	14.3263	-16.1358	-181.971	23.8812	-37.2222	-188.563	36.6001	-54.6126	-138.202	-29.2509	-72.6564	-127.032	-34.0969	-91.3408	-118.337	-40.2417	-116.058	-115.693	-52.6184	-64.3241	-94.2903	-51.4115	-87.6787	-72.934	-51.3774	-106.03	-99.5882	-61.343	-51.8433	-77.5385	-59.6567	-65.6382	-52.3987	-49.0639	-80.892	-95.6589	-79.5774	-16.5381	-78.5725	-86.9939	-28.9214	-63.0616	-99.3796	-46.9266	-141.243	-69.3432	-6.36774	-158.061	-67.8163	27.5345	-170.488	-42.6277	-3.16972	
178	1.48333	-177.14	-2.4522	5.91219	-174.734	11.5791	-16.1903	-181.642	25.7605	-40.7924	-187.49	38.6229	-51.8273	-138.176	-28.7049	-68.4908	-126.442	-36.8865	-89.6066	-119.455	-43.5437	-116.03	-112.376	-49.3854	-68.6884	-89.6785	-46.39	-86.0897	-64.4267	-43.6372	-101.458	-99.8396	-61.4963	-50.0023	-71.6175	-58.5856	-64.0104	-50.5711	-44.0123	-74.9763	-94.199	-82.0158	-19.3211	-82.0959	-85.7243	-30.8595	-66.7754	-97.3967	-50.2136	-140.38	-69.2859	-3.9274	-160.208	-64.9938	22.9318	-171.178	-39.5166	-3.76123	
179	1.49167	-174.669	-0.621915	9.73312	-174.698	15.211	-10.7068	-175.569	25.0952	-38.7654	-180.298	37.5748	-50.8844	-135.706	-31.4243	-70.4847	-128.909	-34.0421	-87.9008	-116.908	-47.6698	-108.217	-112.489	-48.421	-63.9995	-88.0756	-44.4601	-79.6343	-56.656	-36.9837	-89.2704	-96.9473	-64.3974	-44.969	-73.1521	-55.5237	-60.5966	-46.2743	-39.4672	-65.5231	-94.2832	-82.5303	-19.0578	-80.967	-87.4761	-32.8171	-67.5181	-97.9637	-48.4496	-142.429	-67.8038	-0.546606	-160.236	-61.6553	27.5838	-169.612	-38.6519	0.247995	
180	1.5	-171.677	-0.490355	9.47403	-172.665	17.0107	-10.1249	-175.142	27.7087	-41.0853	-178.036	39.3367	-55.8796	-136.1	-33.2569	-63.7668	-125.196	-39.7452	-88.4619	-117.661	-46.9779	-110.753	-108.522	-46.5877	-64.8215	-80.4725	-39.2168	-78.2245	-50.0095	-24.6997	-77.6588	-93.9406	-64.0965	-47.3435	-72.6828	-53.354	-59.0242	-45.0564	-34.339	-55.6705	-96.7255	-80.1795	-22.0068	-83.4738	-87.1224	-32.1581	-70.3677	-97.9483	-48.7398	-144.736	-64.4884	-3.90085	-159.67	-65.2492	24.8333	-166.055	-38.4596	1.73406	
181	1.50833	-168.267	-0.386914	9.67657	-171.596	19.5805	-14.3494	-172.942	29.1171	-36.7876	-176.504	41.0262	-53.5232	-136.449	-32.3613	-68.6528	-126.391	-38.385	-85.4725	-116.553	-47.1212	-113.162	-108.682	-47.0233	-62.1937	-81.8294	-34.7473	-74.3123	-49.2563	-13.93	-60.4559	-97.2736	-64.1941	-43.5351	-66.4107	-48.4494	-55.9665	-48.9313	-28.931	-46.0403	-97.1861	-81.651	-16.6113	-83.2147	-85.8572	-35.5149	-69.9303	-98.7479	-50.9131	-144.52	-64.3325	-2.61341	-158.563	-62.5107	30.1586	-164.89	-38.9492	-1.5879	
182	1.51667	-166.976	0.604747	13.5942	-168.487	19.7334	-12.6461	-170.139	30.1671	-38.4917	-174.012	42.2273	-49.7128	-137.555	-31.5606	-65.4303	-127.468	-37.9676	-85.9556	-116.349	-49.1915	-111.616	-108.083	-44.425	-62.7508	-74.0867	-29.4269	-68.2778	-55.7453	-10.5243	-48.0292	-95.7586	-58.4288	-48.4204	-66.1152	-44.7142	-51.7204	-51.4033	-21.7418	-30.7887	-96.5319	-81.7351	-21.5672	-83.2111	-88.9081	-30.502	-68.1957	-97.6563	-52.0563	-142.28	-65.6653	-0.827246	-159.466	-61.3983	30.0104	-165.677	-36.5228	1.25919	
183	1.525	-165.639	-0.591128	11.5776	-167.157	20.1754	-12.1146	-169.837	29.7573	-36.5191	-170.799	39.6997	-53.5611	-135.803	-34.707	-66.6337	-127.001	-39.1607	-92.2048	-117.271	-48.4292	-110.671	-107.446	-46.1311	-60.0699	-72.9182	-26.342	-63.8775	-61.6228	-4.88823	-35.2589	-94.8157	-59.5967	-45.6599	-63.7599	-42.2228	-45.1352	-60.2211	-19.3914	-23.8584	-97.4659	-81.7983	-20.827	-82.7411	-84.979	-37.0009	-72.1616	-94.6914	-54.869	-144.878	-62.8213	-0.912736	-158.178	-64.4126	29.4397	-166.103	-36.6958	2.64015	
184	1.53333	-166.183	0.784139	7.58672	-166.084	19.8229	-12.4931	-167.17	27.9641	-36.9622	-171.495	39.9044	-49.408	-135.563	-34.4314	-65.4799	-125.939	-40.1783	-86.7673	-114.41	-53.6005	-107.054	-101.444	-43.9047	-61.3361	-75.5746	-24.3731	-63.5285	-66.9188	-2.48956	-31.7439	-89.8027	-58.4566	-45.8179	-65.722	-37.4159	-42.613	-66.5482	-16.2735	-14.1272	-95.9274	-81.0992	-24.1096	-82.1551	-84.1806	-39.2957	-66.2863	-91.8037	-54.8026	-143.33	-65.1505	-2.82074	-156.986	-60.344	28.994	-165.245	-36.3349	-1.27238	
185	1.54167	-165.598	1.86595	8.91816	-165.317	18.4875	-14.0347	-168.855	27.3599	-39.5812	-171.982	38.3092	-53.8166	-134.748	-35.4991	-67.7481	-124.92	-43.1006	-85.997	-112.303	-55.3011	-106.146	-104.423	-41.2302	-62.8108	-74.4272	-25.0855	-59.4916	-70.4028	-3.61151	-28.1323	-94.1089	-57.5088	-43.8471	-67.1148	-36.7905	-44.4699	-70.0273	-16.5667	-15.2354	-99.2994	-77.4943	-22.1725	-79.098	-85.0471	-37.82	-66.34	-88.1571	-55.6339	-143.457	-64.1253	-2.99594	-156.9	-59.0848	25.3331	-165.263	-34.856	-1.88837	
186	1.55	-168.777	3.5008	8.98294	-166.028	19.1647	-13.8176	-170.6	30.2072	-37.1181	-172.857	39.9041	-50.1364	-135.52	-34.1803	-63.144	-123.479	-45.0847	-89.6509	-111.372	-54.2373	-105.636	-107.229	-46.1118	-59.1364	-75.1792	-24.8293	-62.9913	-69.3822	-4.52444	-31.9309	-94.096	-58.0592	-48.1291	-65.4928	-41.1778	-46.1	-66.913	-19.9942	-17.7397	-94.5214	-81.3261	-20.3836	-82.6693	-83.9492	-35.3947	-66.5674	-89.2603	-57.5548	-140.905	-66.7277	1.92506	-158.186	-61.27	27.1111	-167.127	-33.5322	1.57266	
